<svg width="32" height="32" viewBox="0 0 32 32" fill="none" xmlns="http://www.w3.org/2000/svg">
<g clip-path="url(#clip0_166_11614)">
<path d="M8.56812 26.75C8.85886 27.4185 9.33854 27.9876 9.94823 28.3873C10.5579 28.787 11.2711 29 12.0001 29C12.7291 29 13.4423 28.787 14.052 28.3873C14.6617 27.9876 15.1414 27.4185 15.4321 26.75H8.56812Z" fill="#858D9D"/>
<path d="M19.7941 20.4122L18.4921 16.12C18.0752 14.6188 17.1686 13.2998 15.9165 12.3726C14.6644 11.4454 13.1384 10.9631 11.5808 11.0022C10.0232 11.0413 8.52334 11.5997 7.31933 12.5886C6.11531 13.5774 5.27616 14.9402 4.9351 16.4605L3.9241 20.6132C3.78973 21.1651 3.78244 21.7402 3.90281 22.2952C4.02317 22.8503 4.26803 23.3707 4.61892 23.8173C4.9698 24.2639 5.41754 24.6249 5.92834 24.8732C6.43914 25.1215 6.99966 25.2505 7.5676 25.2505H16.2053C16.7909 25.2505 17.3683 25.1134 17.8914 24.8502C18.4144 24.5869 18.8685 24.2049 19.2174 23.7346C19.5662 23.2643 19.8001 22.7188 19.9002 22.1419C20.0004 21.565 19.964 20.9726 19.7941 20.4122Z" fill="#858D9D"/>
</g>
<rect x="13" width="19" height="18" rx="4" fill="#2BB2FE"/>
<path d="M19.6463 13V12.0483L22.1712 9.57315C22.4126 9.32931 22.6139 9.11269 22.7749 8.9233C22.9358 8.7339 23.0566 8.55043 23.1371 8.37287C23.2176 8.19531 23.2578 8.00592 23.2578 7.80469C23.2578 7.57505 23.2057 7.37855 23.1016 7.2152C22.9974 7.04948 22.8542 6.92164 22.6719 6.83168C22.4896 6.74171 22.2824 6.69673 22.0504 6.69673C21.8113 6.69673 21.6018 6.74645 21.4219 6.84588C21.242 6.94294 21.1023 7.08144 21.0028 7.26136C20.9058 7.44129 20.8572 7.65554 20.8572 7.90412H19.6037C19.6037 7.44247 19.709 7.04119 19.9197 6.70028C20.1304 6.35937 20.4205 6.09541 20.7898 5.90838C21.1615 5.72135 21.5876 5.62784 22.0682 5.62784C22.5559 5.62784 22.9844 5.71899 23.3537 5.90128C23.723 6.08357 24.0095 6.33333 24.2131 6.65057C24.419 6.9678 24.522 7.33002 24.522 7.73722C24.522 8.00947 24.4699 8.27699 24.3658 8.53977C24.2616 8.80256 24.0781 9.09375 23.8153 9.41335C23.5549 9.73295 23.1892 10.12 22.718 10.5746L21.4645 11.8494V11.8991H24.6321V13H19.6463Z" fill="white"/>
<defs>
<clipPath id="clip0_166_11614">
<rect width="18" height="18" fill="white" transform="translate(3 11)"/>
</clipPath>
</defs>
</svg>
