<svg width="143" height="20" viewBox="0 0 143 20" fill="none" xmlns="http://www.w3.org/2000/svg">
<path d="M5.058 4.31V8.002H11.012V11.434H5.058V15.438H11.792V19H0.612V0.747999H11.792V4.31H5.058ZM21.5164 0.747999C23.4404 0.747999 25.1217 1.12933 26.5604 1.892C27.9991 2.65467 29.1084 3.72933 29.8884 5.116C30.6857 6.48533 31.0844 8.07133 31.0844 9.874C31.0844 11.6593 30.6857 13.2453 29.8884 14.632C29.1084 16.0187 27.9904 17.0933 26.5344 17.856C25.0957 18.6187 23.4231 19 21.5164 19H14.6784V0.747999H21.5164ZM21.2304 15.152C22.9117 15.152 24.2204 14.6927 25.1564 13.774C26.0924 12.8553 26.5604 11.5553 26.5604 9.874C26.5604 8.19267 26.0924 6.884 25.1564 5.948C24.2204 5.012 22.9117 4.544 21.2304 4.544H19.1244V15.152H21.2304ZM44.749 8.028V11.72H33.309V8.028H44.749ZM73.7671 0.747999L69.0091 19H63.6271L60.7151 6.988L57.6991 19H52.3171L47.6891 0.747999H52.4471L55.0731 14.034L58.3231 0.747999H63.2111L66.3311 14.034L68.9831 0.747999H73.7671ZM84.6288 19.182C82.9128 19.182 81.3354 18.7833 79.8968 17.986C78.4754 17.1887 77.3401 16.0793 76.4908 14.658C75.6588 13.2193 75.2428 11.6073 75.2428 9.822C75.2428 8.03667 75.6588 6.43333 76.4908 5.012C77.3401 3.59067 78.4754 2.48133 79.8968 1.684C81.3354 0.886666 82.9128 0.488 84.6288 0.488C86.3448 0.488 87.9134 0.886666 89.3348 1.684C90.7734 2.48133 91.9001 3.59067 92.7148 5.012C93.5468 6.43333 93.9628 8.03667 93.9628 9.822C93.9628 11.6073 93.5468 13.2193 92.7148 14.658C91.8828 16.0793 90.7561 17.1887 89.3348 17.986C87.9134 18.7833 86.3448 19.182 84.6288 19.182ZM84.6288 15.126C86.0848 15.126 87.2461 14.6407 88.1128 13.67C88.9968 12.6993 89.4388 11.4167 89.4388 9.822C89.4388 8.21 88.9968 6.92733 88.1128 5.974C87.2461 5.00333 86.0848 4.518 84.6288 4.518C83.1554 4.518 81.9768 4.99467 81.0928 5.948C80.2261 6.90133 79.7928 8.19267 79.7928 9.822C79.7928 11.434 80.2261 12.7253 81.0928 13.696C81.9768 14.6493 83.1554 15.126 84.6288 15.126ZM105.744 19L101.948 12.11H100.882V19H96.4362V0.747999H103.898C105.337 0.747999 106.559 0.999333 107.564 1.502C108.587 2.00467 109.35 2.698 109.852 3.582C110.355 4.44867 110.606 5.41933 110.606 6.494C110.606 7.70733 110.26 8.79067 109.566 9.744C108.89 10.6973 107.885 11.3733 106.55 11.772L110.762 19H105.744ZM100.882 8.964H103.638C104.453 8.964 105.06 8.76467 105.458 8.366C105.874 7.96733 106.082 7.404 106.082 6.676C106.082 5.98267 105.874 5.43667 105.458 5.038C105.06 4.63933 104.453 4.44 103.638 4.44H100.882V8.964ZM117.843 15.568H123.667V19H113.397V0.747999H117.843V15.568ZM132.626 0.747999C134.55 0.747999 136.231 1.12933 137.67 1.892C139.108 2.65467 140.218 3.72933 140.998 5.116C141.795 6.48533 142.194 8.07133 142.194 9.874C142.194 11.6593 141.795 13.2453 140.998 14.632C140.218 16.0187 139.1 17.0933 137.644 17.856C136.205 18.6187 134.532 19 132.626 19H125.788V0.747999H132.626ZM132.34 15.152C134.021 15.152 135.33 14.6927 136.266 13.774C137.202 12.8553 137.67 11.5553 137.67 9.874C137.67 8.19267 137.202 6.884 136.266 5.948C135.33 5.012 134.021 4.544 132.34 4.544H130.234V15.152H132.34Z" fill="#2B3674"/>
</svg>
