<svg width="37" height="37" viewBox="0 0 37 37" fill="none" xmlns="http://www.w3.org/2000/svg">
<rect x="0.198975" y="0.349609" width="36" height="36" rx="8" fill="#E7E6F2"/>
<path fill-rule="evenodd" clip-rule="evenodd" d="M9.19897 18.3496C9.19897 14.7545 9.19897 12.9569 10.0557 11.6622C10.4382 11.084 10.9334 10.5889 11.5115 10.2063C12.8063 9.34961 14.6038 9.34961 18.199 9.34961C21.7941 9.34961 23.5917 9.34961 24.8864 10.2063C25.4646 10.5889 25.9597 11.084 26.3423 11.6622C27.199 12.9569 27.199 14.7545 27.199 18.3496C27.199 21.9447 27.199 23.7423 26.3423 25.0371C25.9597 25.6152 25.4646 26.1104 24.8864 26.4929C23.5917 27.3496 21.7941 27.3496 18.199 27.3496C14.6038 27.3496 12.8063 27.3496 11.5115 26.4929C10.9334 26.1104 10.4382 25.6152 10.0557 25.0371C9.19897 23.7423 9.19897 21.9447 9.19897 18.3496ZM22.8582 18.3498C22.8582 20.9232 20.7721 23.0092 18.1988 23.0092C15.6255 23.0092 13.5394 20.9232 13.5394 18.3498C13.5394 15.7765 15.6255 13.6904 18.1988 13.6904C20.7721 13.6904 22.8582 15.7765 22.8582 18.3498ZM18.1988 21.4328C19.9015 21.4328 21.2818 20.0525 21.2818 18.3498C21.2818 16.6471 19.9015 15.2668 18.1988 15.2668C16.4961 15.2668 15.1158 16.6471 15.1158 18.3498C15.1158 20.0525 16.4961 21.4328 18.1988 21.4328ZM23.0422 14.5512C23.6469 14.5512 24.1371 14.061 24.1371 13.4563C24.1371 12.8517 23.6469 12.3615 23.0422 12.3615C22.4376 12.3615 21.9474 12.8517 21.9474 13.4563C21.9474 14.061 22.4376 14.5512 23.0422 14.5512Z" fill="#8D8BA7"/>
</svg>
