<svg width="37" height="37" viewBox="0 0 37 37" fill="none" xmlns="http://www.w3.org/2000/svg">
<rect x="0.198975" y="0.349609" width="36" height="36" rx="8" fill="#E7E6F2"/>
<path d="M9.19897 11.7697C9.19897 11.1924 9.40168 10.7163 9.80708 10.3411C10.2125 9.9659 10.7395 9.77832 11.3882 9.77832C12.0252 9.77832 12.5407 9.96301 12.9345 10.3324C13.3399 10.7134 13.5426 11.2098 13.5426 11.8216C13.5426 12.3757 13.3457 12.8375 12.9519 13.2069C12.5465 13.5878 12.0136 13.7783 11.3534 13.7783H11.336C10.699 13.7783 10.1835 13.5878 9.78971 13.2069C9.39588 12.8259 9.19897 12.3469 9.19897 11.7697ZM9.42484 26.9212V15.3541H13.282V26.9212H9.42484ZM15.4191 26.9212H19.2762V20.4623C19.2762 20.0582 19.3225 19.7466 19.4152 19.5272C19.5773 19.1347 19.8235 18.8028 20.1536 18.5316C20.4837 18.2603 20.8978 18.1246 21.3959 18.1246C22.6932 18.1246 23.3418 18.9962 23.3418 20.7394V26.9212H27.199V20.2891C27.199 18.5806 26.7936 17.2848 25.9828 16.4017C25.1719 15.5186 24.1005 15.077 22.7685 15.077C21.2743 15.077 20.1102 15.7177 19.2762 16.9991V17.0337H19.2588L19.2762 16.9991V15.3541H15.4191C15.4422 15.7235 15.4538 16.8721 15.4538 18.8C15.4538 20.7278 15.4422 23.4349 15.4191 26.9212Z" fill="#8D8BA7"/>
</svg>
