<svg width="36" height="36" viewBox="0 0 36 36" fill="none" xmlns="http://www.w3.org/2000/svg">
<path d="M31.6351 10.4698C30.3601 9.05979 28.2301 8.35479 25.1401 8.35479H24.7801V8.29479C24.7801 5.77479 24.7801 2.65479 19.1401 2.65479H16.8601C11.2201 2.65479 11.2201 5.78979 11.2201 8.29479V8.36979H10.8601C7.75506 8.36979 5.64006 9.07478 4.36506 10.4848C2.88006 12.1348 2.92506 14.3548 3.07506 15.8698L3.09006 15.9748L3.21751 17.3131C3.23178 17.4628 3.31224 17.5979 3.43795 17.6806C3.77524 17.9023 4.46336 18.3494 4.86006 18.5698C5.07006 18.7048 5.29506 18.8248 5.52006 18.9448C8.08506 20.3548 10.9051 21.2998 13.7701 21.7648C13.9051 23.1748 14.5201 24.8248 17.8051 24.8248C21.0901 24.8248 21.7351 23.1898 21.8401 21.7348C24.9001 21.2398 27.8551 20.1748 30.5251 18.6148C30.6151 18.5698 30.6751 18.5248 30.7501 18.4798C31.3765 18.1257 32.0276 17.6851 32.6137 17.259C32.7264 17.177 32.7988 17.051 32.8142 16.9125L32.8501 16.5898L32.9251 15.8848C32.9401 15.7948 32.9401 15.7198 32.9551 15.6148C33.0751 14.0998 33.0451 12.0298 31.6351 10.4698ZM19.6351 20.7448C19.6351 22.3348 19.6351 22.5748 17.7901 22.5748C15.9451 22.5748 15.9451 22.2898 15.9451 20.7598V18.8698H19.6351V20.7448ZM13.3651 8.35479V8.29479C13.3651 5.74479 13.3651 4.79979 16.8601 4.79979H19.1401C22.6351 4.79979 22.6351 5.75979 22.6351 8.29479V8.36979H13.3651V8.35479Z" fill="#031A5B"/>
<path d="M31.7157 20.4073C32.0685 20.2374 32.4743 20.5178 32.4389 20.9078L31.86 27.2851C31.545 30.2851 30.315 33.3451 23.715 33.3451H12.285C5.68501 33.3451 4.45501 30.2851 4.14001 27.3001L3.5893 21.2422C3.55426 20.8568 3.95032 20.5765 4.30227 20.7375C5.90334 21.4702 9.5496 23.0872 11.6449 23.6083C11.8098 23.6493 11.9447 23.7671 12.0126 23.9228C12.8964 25.95 14.8937 27.0301 17.805 27.0301C20.6875 27.0301 22.7114 25.9084 23.5973 23.878C23.6653 23.7222 23.8005 23.6044 23.9654 23.5633C26.1862 23.0098 30.0484 21.21 31.7157 20.4073Z" fill="#031A5B"/>
</svg>
