<svg width="36" height="36" viewBox="0 0 36 36" fill="none" xmlns="http://www.w3.org/2000/svg">
<path d="M25.2449 23.4602C26.2499 22.8002 27.5699 23.5202 27.5699 24.7202V26.6552C27.5699 28.5602 26.0849 30.6002 24.2999 31.2002L19.5149 32.7902C18.6749 33.0752 17.3099 33.0752 16.4849 32.7902L11.6999 31.2002C9.89993 30.6002 8.42993 28.5602 8.42993 26.6552V24.7052C8.42993 23.5202 9.74993 22.8002 10.7399 23.4452L13.8299 25.4552C15.0149 26.2502 16.5149 26.6402 18.0149 26.6402C19.5149 26.6402 21.0149 26.2502 22.1999 25.4552L25.2449 23.4602Z" fill="#031A5B"/>
<path d="M29.97 9.68984L20.985 3.79484C19.365 2.72984 16.695 2.72984 15.075 3.79484L6.04503 9.68984C3.15003 11.5648 3.15003 15.8098 6.04503 17.6998L8.44503 19.2598L15.075 23.5798C16.695 24.6448 19.365 24.6448 20.985 23.5798L27.57 19.2598L29.625 17.9098V22.4998C29.625 23.1148 30.135 23.6248 30.75 23.6248C31.365 23.6248 31.875 23.1148 31.875 22.4998V15.1198C32.475 13.1848 31.86 10.9348 29.97 9.68984Z" fill="#031A5B"/>
</svg>
