<svg width="37" height="37" viewBox="0 0 37 37" fill="none" xmlns="http://www.w3.org/2000/svg">
<rect x="0.198975" y="0.349609" width="36" height="36" rx="8" fill="#E7E6F2"/>
<path d="M21.226 11.0511V11.0479H22.07L22.3784 11.1094C22.584 11.1494 22.7707 11.2018 22.9384 11.2667C23.1061 11.3315 23.2684 11.4071 23.4253 11.4936C23.5822 11.58 23.7245 11.6681 23.8522 11.7578C23.9788 11.8464 24.0924 11.9404 24.193 12.0398C24.2926 12.1403 24.4478 12.1662 24.6588 12.1176C24.8698 12.069 25.0971 12.0014 25.3405 11.915C25.584 11.8286 25.8248 11.7313 26.0628 11.6233C26.3009 11.5152 26.4459 11.4466 26.4978 11.4174C26.5487 11.3872 26.5757 11.3709 26.579 11.3688L26.5822 11.3639L26.5984 11.3558L26.6147 11.3477L26.6309 11.3396L26.6471 11.3315L26.6504 11.3266L26.6552 11.3234L26.6601 11.3202L26.6634 11.3153L26.6796 11.3104L26.6958 11.3072L26.6926 11.3315L26.6877 11.3558L26.6796 11.3801L26.6715 11.4044L26.6634 11.4206L26.6552 11.4369L26.6471 11.4612C26.6417 11.4774 26.6363 11.499 26.6309 11.526C26.6255 11.553 26.5741 11.6611 26.4767 11.8502C26.3793 12.0393 26.2576 12.2311 26.1115 12.4256C25.9654 12.6201 25.8345 12.767 25.7187 12.8664C25.6019 12.9669 25.5245 13.0372 25.4866 13.0771C25.4488 13.1182 25.4028 13.156 25.3487 13.1906L25.2675 13.2441L25.2513 13.2522L25.235 13.2603L25.2318 13.2652L25.2269 13.2684L25.2221 13.2716L25.2188 13.2765L25.2026 13.2846L25.1864 13.2927L25.1831 13.2976L25.1782 13.3008L25.1734 13.3041L25.1701 13.3089L25.1669 13.3138L25.162 13.317L25.1571 13.3203L25.1539 13.3251H25.235L25.6895 13.2279C25.9925 13.163 26.2819 13.0847 26.5579 12.9929L26.9961 12.847L27.0448 12.8308L27.0691 12.8227L27.0854 12.8146L27.1016 12.8065L27.1178 12.7984L27.1341 12.7903L27.1665 12.7854L27.199 12.7822V12.8146L27.1909 12.8178L27.1827 12.8227L27.1795 12.8275L27.1746 12.8308L27.1698 12.834L27.1665 12.8389L27.1633 12.8437L27.1584 12.847L27.1535 12.8502L27.1503 12.8551L27.1471 12.86L27.1422 12.8632L27.1341 12.8794L27.1259 12.8956L27.1211 12.8989C27.1189 12.9021 27.0502 12.9939 26.9149 13.1744C26.7797 13.3559 26.7066 13.4478 26.6958 13.4499C26.685 13.4532 26.6698 13.4694 26.6504 13.4986C26.632 13.5288 26.5173 13.6493 26.3063 13.86C26.0953 14.0707 25.8886 14.2582 25.6863 14.4224C25.4829 14.5878 25.38 14.7909 25.3779 15.0319C25.3746 15.2718 25.3622 15.543 25.3405 15.8455C25.3189 16.1481 25.2783 16.475 25.2188 16.8261C25.1593 17.1773 25.0673 17.5744 24.9429 18.0175C24.8185 18.4605 24.667 18.8927 24.4884 19.3141C24.3099 19.7356 24.1232 20.1137 23.9285 20.4487C23.7337 20.7837 23.5552 21.0674 23.3928 21.2997C23.2305 21.532 23.0655 21.7508 22.8978 21.9561C22.7301 22.1614 22.518 22.3927 22.2616 22.6498C22.004 22.9059 21.8634 23.0464 21.8396 23.0712C21.8147 23.095 21.7086 23.1836 21.5214 23.3371C21.3353 23.4916 21.1351 23.6461 20.9209 23.8006C20.7077 23.9541 20.5119 24.0821 20.3333 24.1848C20.1548 24.2874 19.9395 24.4046 19.6873 24.5365C19.4363 24.6694 19.1647 24.7926 18.8726 24.906C18.5804 25.0195 18.272 25.1249 17.9474 25.2221C17.6228 25.3194 17.309 25.395 17.006 25.449C16.703 25.503 16.3595 25.549 15.9753 25.5868L15.3992 25.6435V25.6516H14.3442V25.6435L14.2062 25.6354C14.1142 25.63 14.0385 25.6246 13.979 25.6192C13.9195 25.6138 13.6949 25.5841 13.3054 25.5301C12.9158 25.476 12.6102 25.422 12.3883 25.368C12.1665 25.314 11.8365 25.2113 11.3983 25.06C10.96 24.9087 10.5851 24.7558 10.2735 24.6013C9.96291 24.4479 9.76814 24.3506 9.68915 24.3096C9.61124 24.2696 9.52359 24.2199 9.42621 24.1605L9.28013 24.0713L9.2769 24.0664L9.27201 24.0632L9.26714 24.06L9.2639 24.0551L9.24767 24.047L9.23144 24.0389L9.22821 24.034L9.22332 24.0308L9.21845 24.0275L9.21521 24.0227L9.21198 24.0178L9.20709 24.0146H9.19897V23.9822L9.21521 23.9854L9.23144 23.9903L9.30448 23.9984C9.35317 24.0038 9.48572 24.0119 9.70213 24.0227C9.91855 24.0335 10.1485 24.0335 10.3919 24.0227C10.6354 24.0119 10.8843 23.9876 11.1386 23.9497C11.3928 23.9119 11.6931 23.8471 12.0394 23.7552C12.3856 23.6634 12.7038 23.5543 12.9938 23.4278C13.2827 23.3003 13.4882 23.2052 13.6105 23.1426C13.7317 23.081 13.9167 22.9664 14.1656 22.7989L14.5389 22.5477L14.5422 22.5429L14.547 22.5396L14.5519 22.5364L14.5552 22.5315L14.5584 22.5266L14.5633 22.5234L14.5682 22.5202L14.5714 22.5153L14.5876 22.5104L14.6038 22.5072L14.6071 22.491L14.612 22.4748L14.6168 22.4715L14.6201 22.4667L14.4902 22.4586C14.4037 22.4532 14.3198 22.4478 14.2386 22.4424C14.1575 22.437 14.0304 22.4127 13.8572 22.3694C13.6841 22.3262 13.4975 22.2614 13.2973 22.1749C13.0971 22.0885 12.9023 21.9858 12.713 21.867C12.5236 21.7481 12.3867 21.6492 12.3023 21.5704C12.219 21.4925 12.1108 21.3823 11.9777 21.2397C11.8457 21.096 11.731 20.9485 11.6336 20.7972C11.5362 20.6459 11.4432 20.4714 11.3544 20.2737L11.2197 19.9787L11.2116 19.9544L11.2035 19.9301L11.1986 19.9139L11.1954 19.8976L11.2197 19.9009L11.2441 19.9057L11.4226 19.9301C11.5416 19.9463 11.7283 19.9517 11.9826 19.9463C12.2369 19.9409 12.4127 19.9301 12.5101 19.9139C12.6075 19.8976 12.667 19.8868 12.6886 19.8814L12.7211 19.8733L12.7616 19.8652L12.8022 19.8571L12.8055 19.8523L12.8103 19.849L12.8152 19.8458L12.8185 19.8409L12.786 19.8328L12.7535 19.8247L12.7211 19.8166L12.6886 19.8085L12.6561 19.8004C12.6345 19.795 12.5966 19.7842 12.5425 19.768C12.4884 19.7518 12.3424 19.6923 12.1043 19.5897C11.8663 19.487 11.6769 19.3871 11.5362 19.2898C11.3952 19.1923 11.2607 19.0856 11.1337 18.9705C11.0071 18.8538 10.8681 18.7036 10.7166 18.5199C10.5651 18.3362 10.4298 18.1228 10.3108 17.8797C10.1918 17.6366 10.1025 17.4043 10.043 17.1827C9.9837 16.9625 9.94459 16.7374 9.92613 16.5101L9.8969 16.1697L9.91313 16.173L9.92936 16.1778L9.94559 16.1859L9.96182 16.194L9.97805 16.2021L9.99429 16.2102L10.2459 16.3237C10.4136 16.3993 10.6219 16.4642 10.8708 16.5182C11.1196 16.5722 11.2684 16.6019 11.3171 16.6073L11.3901 16.6154H11.5362L11.533 16.6106L11.5281 16.6073L11.5232 16.6041L11.52 16.5992L11.5168 16.5944L11.5119 16.5911L11.507 16.5879L11.5038 16.583L11.4875 16.5749L11.4713 16.5668L11.4681 16.562L11.4632 16.5587L11.4583 16.5555L11.4551 16.5506L11.4388 16.5425L11.4226 16.5344L11.4194 16.5295C11.4161 16.5274 11.3696 16.4928 11.2798 16.4258C11.191 16.3577 11.098 16.2697 11.0006 16.1616C10.9032 16.0535 10.8058 15.9401 10.7084 15.8212C10.6109 15.7021 10.524 15.5746 10.4487 15.4403C10.373 15.3053 10.2929 15.1334 10.2085 14.9249C10.1252 14.7174 10.0619 14.5083 10.0186 14.2976C9.97536 14.0869 9.95101 13.8789 9.94559 13.6736C9.94019 13.4683 9.94559 13.2927 9.96182 13.1468C9.97805 13.001 10.0105 12.8362 10.0592 12.6525C10.1079 12.4688 10.1782 12.2743 10.2702 12.069L10.4082 11.761L10.4163 11.7367L10.4244 11.7124L10.4293 11.7092L10.4325 11.7043L10.4358 11.6994L10.4406 11.6962L10.4455 11.6994L10.4487 11.7043L10.452 11.7092L10.4569 11.7124L10.4618 11.7156L10.465 11.7205L10.4682 11.7254L10.4731 11.7286L10.4812 11.7448L10.4893 11.761L10.4942 11.7643L10.4974 11.7691L10.7166 12.0123C10.8626 12.1743 11.0358 12.3553 11.2359 12.5552C11.4361 12.7551 11.547 12.8589 11.5687 12.8664C11.5903 12.8751 11.6174 12.8999 11.6498 12.941C11.6823 12.981 11.7905 13.0766 11.9744 13.2279C12.1584 13.3792 12.3992 13.5548 12.6967 13.7547C12.9943 13.9546 13.3243 14.1518 13.6868 14.3463C14.0493 14.5408 14.4388 14.7163 14.8554 14.873C15.272 15.0297 15.5642 15.1324 15.7319 15.181C15.8996 15.2296 16.1864 15.2917 16.5921 15.3674C16.9979 15.443 17.3036 15.4917 17.5092 15.5133C17.7148 15.5349 17.8554 15.5473 17.9312 15.5505L18.0448 15.5538L18.0416 15.5295L18.0367 15.5052L18.0042 15.3026C17.9826 15.1675 17.9717 14.9784 17.9717 14.7353C17.9717 14.4921 17.9907 14.2679 18.0286 14.0626C18.0664 13.8573 18.1232 13.6493 18.199 13.4386C18.2747 13.2279 18.3489 13.0588 18.4213 12.9313C18.4949 12.8048 18.5912 12.6606 18.7102 12.4985C18.8293 12.3364 18.9835 12.1689 19.1728 11.996C19.3622 11.8231 19.5786 11.6692 19.8221 11.5341C20.0655 11.399 20.2901 11.2964 20.4956 11.2261C20.7012 11.1559 20.8744 11.11 21.015 11.0884C21.1557 11.0668 21.226 11.0543 21.226 11.0511Z" fill="#8D8BA7"/>
</svg>
