<svg width="37" height="37" viewBox="0 0 37 37" fill="none" xmlns="http://www.w3.org/2000/svg">
<rect x="0.198975" y="0.349609" width="36" height="36" rx="8" fill="#E7E6F2"/>
<path d="M18.6377 25.3298L14.5755 25.2539C13.2603 25.2274 11.9418 25.2802 10.6523 25.0061C8.69074 24.5966 8.55178 22.5887 8.40637 20.9045C8.20601 18.5366 8.28357 16.1258 8.66168 13.7777C8.87514 12.4602 9.71517 11.6741 11.0142 11.5885C15.3996 11.278 19.8141 11.3148 24.1897 11.4597C24.6519 11.4729 25.1172 11.5455 25.5728 11.6281C27.8221 12.0311 27.877 14.3064 28.0228 16.2219C28.1682 18.1571 28.1068 20.1023 27.8289 22.0243C27.6059 23.6157 27.1793 24.9503 25.3789 25.0791C23.1232 25.2476 20.9192 25.3832 18.6571 25.34C18.6572 25.3298 18.6442 25.3298 18.6377 25.3298ZM16.2496 21.3008C17.9495 20.3034 19.6169 19.3226 21.3071 18.3319C19.604 17.3345 17.9397 16.3537 16.2496 15.363V21.3008Z" fill="#8D8BA7"/>
</svg>
